<?xml version="1.0" encoding="utf-8"?>
<!-- Generator: Adobe Illustrator 19.0.0, SVG Export Plug-In . SVG Version: 6.00 Build 0)  -->
<svg version="1.1" id="layer" xmlns="http://www.w3.org/2000/svg" xmlns:xlink="http://www.w3.org/1999/xlink" x="0px" y="0px"
	 viewBox="-153 -46 652 652" style="enable-background:new -153 -46 652 652;" xml:space="preserve">
<style type="text/css">
	.st0{fill:#686D71;}
	.st1{fill:#0055A2;}
	.st2{fill:#E60012;}
	.st3{fill:#00A040;}
</style>
<g>
	<path class="st0" d="M456.2,301.7c-4.7,0-9.1,2.5-10.5,6.2h-0.1v-5.3h-4v30.7h4v-17.9c0.1-6,4-10.5,10.4-10.5c6.5,0,8.4,4,8.4,9.3
		v19.2h4v-19.8C468.3,306.2,465.5,301.7,456.2,301.7 M420,331c-7.7,0-11.6-6.6-11.6-13.1c0-6.5,3.8-13.1,11.6-13.1
		c7.7,0,11.6,6.6,11.6,13.1C431.6,324.4,427.7,331,420,331 M420,301.7c-10.1,0-15.6,7.4-15.6,16.3c0,8.8,5.5,16.2,15.6,16.2
		c10.1,0,15.6-7.4,15.6-16.2C435.6,309.1,430.1,301.7,420,301.7 M394.3,333.3h4v-30.7h-4V333.3z M394.3,296.8h4v-6h-4V296.8z
		 M381.7,293.3h-4v9.2h-5.8v3.2h5.8v21c-0.1,5.2,1.8,6.9,7.2,6.9c1.2,0,2.3-0.1,3.6-0.1v-3.2c-1.1,0.1-2.3,0.2-3.4,0.2
		c-2.9-0.2-3.3-1.6-3.3-4.1v-20.7h6.7v-3.2h-6.7V293.3z M353.7,331c-7.7,0-11.6-6.6-11.6-13.1c0-6.5,3.8-13.1,11.6-13.1
		c7.7,0,11.6,6.6,11.6,13.1C365.2,324.4,361.4,331,353.7,331 M353.7,301.7c-10.1,0-15.6,7.4-15.6,16.3c0,8.8,5.5,16.2,15.6,16.2
		c10.1,0,15.6-7.4,15.6-16.2C369.3,309.1,363.8,301.7,353.7,301.7 M321.1,301.7c-4.4,0-8.5,2-10.5,6c-1.2-4-5.1-6-9.5-6
		c-5.3,0-8.7,2.4-10.8,6.1h-0.2v-5.2h-3.7v30.7h4v-17.1c0.1-6.4,2.9-11.3,9.9-11.3c5.1,0,7,3.5,6.9,7.6v20.8h4v-17.4
		c0-5.7,2-11.1,9-11.1c5.8,0,7.8,2.7,7.8,7.8v20.7h4v-20.8C332.1,305.2,328.4,301.7,321.1,301.7 M264.8,331
		c-7.7,0-11.6-6.6-11.6-13.1c0-6.5,3.9-13.1,11.6-13.1c7.8,0,11.6,6.6,11.6,13.1C276.4,324.4,272.6,331,264.8,331 M264.8,301.7
		c-10.1,0-15.6,7.4-15.6,16.3c0,8.8,5.5,16.2,15.6,16.2c10.1,0,15.6-7.4,15.6-16.2C280.4,309.1,275,301.7,264.8,301.7 M235.7,309.7
		h-0.1v-7.2h-3.7v30.7h4v-16.4c0-6.4,5-11.4,12.3-11v-3.8C242.3,301.9,237.8,304.8,235.7,309.7 M211.7,311.6h-15v-17.4h15
		c6,0,10.2,2.9,10.2,8.7C221.9,308.7,217.7,311.6,211.7,311.6 M212.7,290.8h-20.3v42.5h4.3V315h15.9c8.2,0,13.6-4.5,13.6-12.1
		C226.2,295.2,220.9,290.8,212.7,290.8"/>
	<path class="st0" d="M309.2,280.7h3.5v-0.1c0,0,0,0,0,0c2,0,3.6-1.6,3.7-3.5v-38.9h-7.3V280.7z M363,249.1c-4.4,0-8.1,2.1-9.9,4.9
		H353v-15.8h-7.3v42.5h3.5v-0.1c0,0,0,0,0,0c2.1,0,3.7-1.6,3.7-3.7h0v-14.5c0-4.5,3.1-8.1,8-8.1c4.3,0,6.3,2.1,6.5,6.9v19.3h7.3
		v-21.1C374.7,252.6,370.2,249.1,363,249.1 M221.4,253.1c-3.1,0.2-7.3,0.7-11.2,1.8c-3.7,1.1-7.1,2.7-9.8,4.2v-20.7h-8v42.3h8v-13
		c2.5-2.1,6-4.4,10.5-5.7c4.6-1.3,8-1.8,10.4-1.8v20.5h4.2v0c0,0,0,0,0,0c2.1,0,3.7-1.6,3.7-3.7h0v-38.6h-8V253.1z M243.6,262.6
		c0.2-4.6,3.6-8.2,8.7-8.2c4.9,0,8,3.9,8.3,8.2H243.6z M252.3,249.1c-9.9,0-16,7.5-16,16.2c0,9.5,5.8,16.2,16.2,16.2
		c6.4,0,11.9-2.9,14.2-8.3c-0.2-0.6-0.6-1-1.1-1.3c-1.9-0.9-4.3-0.6-5.4-0.3c-1.3,3-3.8,4.5-7.8,4.5c-6.1,0-8.9-4.3-8.9-9.1h24.3
		C269.1,257.8,262.7,249.1,252.3,249.1 M293.8,270.3c0,4.3-5,5.8-8.2,5.8c-2.5,0-6.7-0.9-6.7-3.9c0-3.6,2.8-4.7,6-5.1
		c3.2-0.5,6.7-0.5,8.9-1.9V270.3z M302.8,276.2c-1.3,0-1.7-0.7-1.7-2.3V258c0-6.5-6.8-8.9-13.2-8.9c-7.3,0-14.5,2.3-15,10.2h7.3
		c0.3-3.3,3.2-4.9,7.3-4.9c2.9,0,6.8,0.7,6.8,4.2c0,4-4.7,3.5-9.9,4.3c-6.1,0.7-12.7,1.9-12.7,9.6c0,6,5.4,9,11.3,9
		c3.9,0,8.6-1.1,11.4-3.7c0.5,2.6,2.4,3.6,5,3.7c1.2,0,2.7-0.2,3.7-0.8c1.6-0.9,1.2-4.2,1.2-4.6
		C303.7,276.1,303.2,276.2,302.8,276.2 M333.8,270V256c2.2-0.7,4.3-1.5,6.1-2.4v-7.5c-1.7,1.1-3.8,2-6.1,2.8l0-10.7h-7.6l0,12.3
		c-2,0.2-3.8,0.3-5.3,0.3v7c1.6,0,3.5-0.2,5.3-0.4v15.5c0.1,5.1,1.5,7.9,9.1,7.9c1.6,0,3.1-0.2,4.7-0.4v-5.2c-1,0.2-2,0.2-3.1,0.2
		C333.8,275.4,333.8,272.8,333.8,270"/>
	<path class="st0" d="M346.2,380.7c-6.3,0-9.1-5.2-9.1-10.5c0-5.5,2.4-11.2,9.3-11.2c5.6,0,9.1,4,9.1,10.8
		C355.4,375.1,352.7,380.7,346.2,380.7 M355.2,342.7v15.7h-0.1c-2.3-3.4-6.8-4.8-11-4.8c-7.2,0-14.3,4.9-14.3,16
		c0,9.2,5,16.4,15.5,16.4c4.2,0,8.3-1.5,10.3-5h0.2v4.2h3.3c2-0.1,3.5-1.6,3.6-3.5v-39H355.2z M214.5,379h-14.1v-13.3h14.1
		c4.9,0,7.7,2.4,7.7,6.5C222.2,376.6,219.4,379,214.5,379 M200.4,348.7h13c4.4,0,6.7,1.5,6.7,5.8c0,3.8-2.9,5.9-6.7,5.9h-13V348.7z
		 M221.6,362.3v-0.1c4.2-1.7,6.5-4.8,6.5-9c0-7.1-5.4-10.5-13.6-10.5h-18.5v0c0,0,0,0,0,0c-2,0-3.6,1.6-3.7,3.5v39h21
		c11.8,0,16.8-5.2,16.8-11.8C230.2,367.5,227.2,363.4,221.6,362.3 M294.8,374.8c0,4.3-5,5.8-8.2,5.8c-2.5,0-6.7-0.9-6.7-3.9
		c0-3.6,2.8-4.7,5.9-5.1c3.2-0.5,6.7-0.5,9-1.9V374.8z M303.8,380.7c-1.3,0-1.7-0.7-1.7-2.3v-15.8c0-6.5-6.8-8.9-13.2-8.9
		c-7.3,0-14.5,2.3-15,10.2h7.3c0.3-3.3,3.2-4.9,7.3-4.9c3,0,6.9,0.6,6.9,4.1c0,4-4.7,3.5-9.9,4.4c-6.1,0.6-12.7,1.9-12.7,9.6
		c0,6,5.4,9,11.3,9c3.9,0,8.6-1.1,11.4-3.7c0.6,2.7,2.5,3.6,5.3,3.7c1.2,0,2.7-0.2,3.7-0.8c0.8-0.5,1.1-1.6,1.2-2.7v-1.6
		c0-0.2,0-0.3,0-0.4C304.8,380.7,304.3,380.7,303.8,380.7 M317.2,359.6c0-1.7-0.3-4-1.3-5.4c-1.6-2.2-3.1-2.5-3.1-2.5l-6.1,3
		c0,0,2.1,1,2.7,2.6c0.3,0.9,0.5,1.9,0.5,2.9v25h7.3v-14.6c0-6.8,4-10.5,9-10.5c1,0,2.1,0.2,3.1,0.3v-6.5c-0.7,0-1.1-0.2-2.8-0.2
		C322.5,353.6,318.5,356.6,317.2,359.6 M251.6,380.7c-6.5,0-9.4-5.5-9.4-10.9c0-5.3,2.9-10.8,9.4-10.8c6.5,0,9.4,5.5,9.4,10.8
		C261.1,375.1,258.2,380.7,251.6,380.7 M251.6,353.6c-10.6,0-16.7,6.8-16.7,16.2c0,9.5,6.1,16.2,16.7,16.2
		c10.6,0,16.7-6.8,16.7-16.2C268.3,360.4,262.3,353.6,251.6,353.6"/>
	<path class="st1" d="M180.4,122.9c-38.9-15.5-116.6,17.7-150.8,82.2c-11,20.9-17.1,40.5-20.1,58.5c11.3-3.5,22.4-5.8,33.1-7.1
		c0.8-3.3,1.8-6.5,2.8-9.7c20.7-64.6,48.3-88.8,74-107.2c40.3-28.8,58.7,1.6,56.3,20.4c-3.6,27.9-38,53.5-55.8,62.5
		c-13.3,6.8-12.7,11.8,1.7,8c12.2-3.2,37-10.3,58.4-29.1C210.7,174.3,211.4,135.3,180.4,122.9 M36.6,290.2
		c-4.6,0.3-9.4,1.4-16.3,2.8c-5.4,1.1-9.2,2.6-12.7,3.7c1.2,34.4,12.7,58.8,16,67.9c6.1,16.4,14,27.4,16.6,27.9
		c5.6,1.1,1.2-4.7-2.1-22.6C34.8,352.3,33.3,321,36.6,290.2"/>
	<path class="st2" d="M-33.4,312c-6.1,3.1-10.2,5.7-15.6,9.6c-19.2,68.5-54.7,94.2-65.9,107.4c-4.4,5.2-1.1,6.4,3,4.8
		c48.4-19,95.8-74.7,95.7-129.1C-23,307-27.8,309.2-33.4,312 M-46,288.9c8.7-5.4,18.5-11,27.2-15.1c-6.6-21.1-21-41.2-45.7-58.2
		c-9.6-6.6-19.5-6.2-14.3-1.6C-70.6,221.6-43.1,246.1-46,288.9"/>
	<path class="st2" d="M-28.5,191.4c-5.2,21.6-3.3,34.2,14.9,30.3c18.2-3.9,37.5-24.5,42.3-46.2C33.7,153.2-23.4,169.7-28.5,191.4"/>
	<path class="st3" d="M49.5,399c-1.5,2.1,0.2,4.4,10.6-1.8c82.1-50.3,147.1-131.2,71.4-149.7c-62.1-15.2-202.2,2.9-261.1,141.4
		c-4.3,9.1-2.3,15.9,6.8-1.2C-71,303.2,29.5,249.6,104.9,268.6C157.6,281.9,109.8,345.1,49.5,399"/>
</g>
</svg>
